<mxfile host="Electron" modified="2024-07-11T15:49:29.518Z" agent="Mozilla/5.0 (Windows NT 10.0; Win64; x64) AppleWebKit/537.36 (KHTML, like Gecko) draw.io/23.1.5 Chrome/120.0.6099.109 Electron/28.1.0 Safari/537.36" etag="qzQd4FksGMeWBV7XCx49" version="23.1.5" type="device">
  <diagram id="R2lEEEUBdFMjLlhIrx00" name="Page-1">
    <mxGraphModel dx="1050" dy="629" grid="1" gridSize="10" guides="1" tooltips="1" connect="1" arrows="1" fold="1" page="1" pageScale="1" pageWidth="850" pageHeight="1100" math="0" shadow="0" extFonts="Permanent Marker^https://fonts.googleapis.com/css?family=Permanent+Marker">
      <root>
        <mxCell id="0" />
        <mxCell id="1" parent="0" />
        <mxCell id="RPujOhpMhMEPzo9DRgul-1" value="Гость" style="shape=umlActor;verticalLabelPosition=bottom;verticalAlign=top;html=1;outlineConnect=0;" parent="1" vertex="1">
          <mxGeometry x="330" y="310" width="30" height="60" as="geometry" />
        </mxCell>
        <mxCell id="RPujOhpMhMEPzo9DRgul-2" value="Зарегистрироваться" style="ellipse;whiteSpace=wrap;html=1;" parent="1" vertex="1">
          <mxGeometry x="160" y="260" width="140" height="70" as="geometry" />
        </mxCell>
        <mxCell id="RPujOhpMhMEPzo9DRgul-4" value="Авторизоваться" style="ellipse;whiteSpace=wrap;html=1;" parent="1" vertex="1">
          <mxGeometry x="160" y="350" width="140" height="70" as="geometry" />
        </mxCell>
        <mxCell id="RPujOhpMhMEPzo9DRgul-8" value="" style="endArrow=none;html=1;rounded=0;entryX=1;entryY=0.5;entryDx=0;entryDy=0;exitX=0.5;exitY=0.5;exitDx=0;exitDy=0;exitPerimeter=0;edgeStyle=orthogonalEdgeStyle;" parent="1" source="RPujOhpMhMEPzo9DRgul-1" target="RPujOhpMhMEPzo9DRgul-2" edge="1">
          <mxGeometry width="50" height="50" relative="1" as="geometry">
            <mxPoint x="300" y="290" as="sourcePoint" />
            <mxPoint x="350" y="240" as="targetPoint" />
          </mxGeometry>
        </mxCell>
        <mxCell id="RPujOhpMhMEPzo9DRgul-9" value="" style="endArrow=none;html=1;rounded=0;entryX=1;entryY=0.5;entryDx=0;entryDy=0;exitX=0.5;exitY=0.5;exitDx=0;exitDy=0;exitPerimeter=0;edgeStyle=orthogonalEdgeStyle;" parent="1" source="RPujOhpMhMEPzo9DRgul-1" target="RPujOhpMhMEPzo9DRgul-4" edge="1">
          <mxGeometry width="50" height="50" relative="1" as="geometry">
            <mxPoint x="360" y="450" as="sourcePoint" />
            <mxPoint x="410" y="400" as="targetPoint" />
          </mxGeometry>
        </mxCell>
        <mxCell id="ab9GXCU1WvvpzUMz92Ie-1" value="Посмотреть информацию об интересующей книге" style="ellipse;whiteSpace=wrap;html=1;" parent="1" vertex="1">
          <mxGeometry x="390" y="260" width="140" height="70" as="geometry" />
        </mxCell>
        <mxCell id="ab9GXCU1WvvpzUMz92Ie-2" value="" style="endArrow=none;html=1;rounded=0;entryX=0;entryY=0.5;entryDx=0;entryDy=0;exitX=0.5;exitY=0.5;exitDx=0;exitDy=0;exitPerimeter=0;edgeStyle=orthogonalEdgeStyle;" parent="1" source="RPujOhpMhMEPzo9DRgul-1" target="ab9GXCU1WvvpzUMz92Ie-1" edge="1">
          <mxGeometry width="50" height="50" relative="1" as="geometry">
            <mxPoint x="430" y="350" as="sourcePoint" />
            <mxPoint x="390" y="300" as="targetPoint" />
          </mxGeometry>
        </mxCell>
        <mxCell id="ab9GXCU1WvvpzUMz92Ie-4" value="Читатель" style="shape=umlActor;verticalLabelPosition=bottom;verticalAlign=top;html=1;outlineConnect=0;" parent="1" vertex="1">
          <mxGeometry x="610" y="310" width="30" height="60" as="geometry" />
        </mxCell>
        <mxCell id="ab9GXCU1WvvpzUMz92Ie-5" value="Забронировать&lt;br&gt;книгу" style="ellipse;whiteSpace=wrap;html=1;" parent="1" vertex="1">
          <mxGeometry x="670" y="260" width="140" height="70" as="geometry" />
        </mxCell>
        <mxCell id="ab9GXCU1WvvpzUMz92Ie-6" value="" style="endArrow=none;html=1;rounded=0;entryX=0;entryY=0.5;entryDx=0;entryDy=0;exitX=0.5;exitY=0.5;exitDx=0;exitDy=0;exitPerimeter=0;edgeStyle=orthogonalEdgeStyle;" parent="1" source="ab9GXCU1WvvpzUMz92Ie-4" target="ab9GXCU1WvvpzUMz92Ie-5" edge="1">
          <mxGeometry width="50" height="50" relative="1" as="geometry">
            <mxPoint x="640" y="240" as="sourcePoint" />
            <mxPoint x="690" y="190" as="targetPoint" />
            <Array as="points">
              <mxPoint x="660" y="340" />
              <mxPoint x="660" y="295" />
            </Array>
          </mxGeometry>
        </mxCell>
        <mxCell id="ab9GXCU1WvvpzUMz92Ie-8" value="Продлить книгу" style="ellipse;whiteSpace=wrap;html=1;" parent="1" vertex="1">
          <mxGeometry x="670" y="350" width="140" height="70" as="geometry" />
        </mxCell>
        <mxCell id="ab9GXCU1WvvpzUMz92Ie-9" value="" style="endArrow=none;html=1;rounded=0;entryX=0;entryY=0.5;entryDx=0;entryDy=0;exitX=0.5;exitY=0.5;exitDx=0;exitDy=0;exitPerimeter=0;edgeStyle=orthogonalEdgeStyle;" parent="1" source="ab9GXCU1WvvpzUMz92Ie-4" target="ab9GXCU1WvvpzUMz92Ie-8" edge="1">
          <mxGeometry width="50" height="50" relative="1" as="geometry">
            <mxPoint x="640" y="330" as="sourcePoint" />
            <mxPoint x="690" y="280" as="targetPoint" />
            <Array as="points">
              <mxPoint x="660" y="340" />
              <mxPoint x="660" y="385" />
            </Array>
          </mxGeometry>
        </mxCell>
        <mxCell id="ab9GXCU1WvvpzUMz92Ie-10" value="Добавить книгу&amp;nbsp;&lt;br&gt;в избранное" style="ellipse;whiteSpace=wrap;html=1;" parent="1" vertex="1">
          <mxGeometry x="670" y="180" width="140" height="70" as="geometry" />
        </mxCell>
        <mxCell id="ab9GXCU1WvvpzUMz92Ie-11" value="" style="endArrow=none;html=1;rounded=0;entryX=0;entryY=0.5;entryDx=0;entryDy=0;exitX=0.5;exitY=0.5;exitDx=0;exitDy=0;exitPerimeter=0;edgeStyle=orthogonalEdgeStyle;" parent="1" source="ab9GXCU1WvvpzUMz92Ie-4" target="ab9GXCU1WvvpzUMz92Ie-10" edge="1">
          <mxGeometry width="50" height="50" relative="1" as="geometry">
            <mxPoint x="640" y="300" as="sourcePoint" />
            <mxPoint x="690" y="250" as="targetPoint" />
            <Array as="points">
              <mxPoint x="660" y="340" />
              <mxPoint x="660" y="215" />
            </Array>
          </mxGeometry>
        </mxCell>
        <mxCell id="ab9GXCU1WvvpzUMz92Ie-12" value="Оформить/обновить&amp;nbsp;&lt;br&gt;читательский билет" style="ellipse;whiteSpace=wrap;html=1;" parent="1" vertex="1">
          <mxGeometry x="670" y="430" width="140" height="70" as="geometry" />
        </mxCell>
        <mxCell id="ab9GXCU1WvvpzUMz92Ie-13" value="" style="endArrow=none;html=1;rounded=0;entryX=0.5;entryY=0.5;entryDx=0;entryDy=0;entryPerimeter=0;exitX=0;exitY=0.5;exitDx=0;exitDy=0;edgeStyle=orthogonalEdgeStyle;" parent="1" source="ab9GXCU1WvvpzUMz92Ie-12" target="ab9GXCU1WvvpzUMz92Ie-4" edge="1">
          <mxGeometry width="50" height="50" relative="1" as="geometry">
            <mxPoint x="640" y="300" as="sourcePoint" />
            <mxPoint x="690" y="250" as="targetPoint" />
            <Array as="points">
              <mxPoint x="660" y="465" />
              <mxPoint x="660" y="340" />
            </Array>
          </mxGeometry>
        </mxCell>
        <mxCell id="ab9GXCU1WvvpzUMz92Ie-16" value="Администратор" style="shape=umlActor;verticalLabelPosition=bottom;verticalAlign=top;html=1;" parent="1" vertex="1">
          <mxGeometry x="610" y="515" width="30" height="60" as="geometry" />
        </mxCell>
        <mxCell id="ab9GXCU1WvvpzUMz92Ie-17" value="Добавить&amp;nbsp;&lt;br&gt;новую книгу" style="ellipse;whiteSpace=wrap;html=1;" parent="1" vertex="1">
          <mxGeometry x="410" y="550" width="140" height="70" as="geometry" />
        </mxCell>
        <mxCell id="ab9GXCU1WvvpzUMz92Ie-18" value="" style="endArrow=block;endSize=16;endFill=0;html=1;rounded=0;exitX=0.5;exitY=0;exitDx=0;exitDy=0;exitPerimeter=0;" parent="1" source="ab9GXCU1WvvpzUMz92Ie-16" edge="1">
          <mxGeometry width="160" relative="1" as="geometry">
            <mxPoint x="570" y="450" as="sourcePoint" />
            <mxPoint x="625" y="400" as="targetPoint" />
          </mxGeometry>
        </mxCell>
        <mxCell id="ab9GXCU1WvvpzUMz92Ie-19" value="Удалить книгу" style="ellipse;whiteSpace=wrap;html=1;" parent="1" vertex="1">
          <mxGeometry x="410" y="460" width="140" height="70" as="geometry" />
        </mxCell>
        <mxCell id="5x9rHW1o4Mc0IzNXt7iS-1" value="Выполнить поиск&amp;nbsp;&lt;br&gt;книги по параметрам" style="ellipse;whiteSpace=wrap;html=1;" parent="1" vertex="1">
          <mxGeometry x="390" y="350" width="140" height="70" as="geometry" />
        </mxCell>
        <mxCell id="5x9rHW1o4Mc0IzNXt7iS-2" value="" style="endArrow=none;html=1;rounded=0;entryX=0;entryY=0.5;entryDx=0;entryDy=0;exitX=0.5;exitY=0.5;exitDx=0;exitDy=0;exitPerimeter=0;edgeStyle=orthogonalEdgeStyle;" parent="1" source="RPujOhpMhMEPzo9DRgul-1" target="5x9rHW1o4Mc0IzNXt7iS-1" edge="1">
          <mxGeometry width="50" height="50" relative="1" as="geometry">
            <mxPoint x="350" y="290" as="sourcePoint" />
            <mxPoint x="70" y="260" as="targetPoint" />
          </mxGeometry>
        </mxCell>
        <mxCell id="id_4tlE-n_HqMQmEI3QP-1" value="" style="endArrow=none;html=1;rounded=0;entryX=1;entryY=0.5;entryDx=0;entryDy=0;exitX=0.5;exitY=0.5;exitDx=0;exitDy=0;exitPerimeter=0;edgeStyle=orthogonalEdgeStyle;" edge="1" parent="1" source="ab9GXCU1WvvpzUMz92Ie-4" target="ab9GXCU1WvvpzUMz92Ie-1">
          <mxGeometry width="50" height="50" relative="1" as="geometry">
            <mxPoint x="490" y="490" as="sourcePoint" />
            <mxPoint x="540" y="440" as="targetPoint" />
          </mxGeometry>
        </mxCell>
        <mxCell id="id_4tlE-n_HqMQmEI3QP-2" value="" style="endArrow=none;html=1;rounded=0;exitX=1;exitY=0.5;exitDx=0;exitDy=0;entryX=0.5;entryY=0.5;entryDx=0;entryDy=0;entryPerimeter=0;edgeStyle=orthogonalEdgeStyle;" edge="1" parent="1" source="5x9rHW1o4Mc0IzNXt7iS-1" target="ab9GXCU1WvvpzUMz92Ie-4">
          <mxGeometry width="50" height="50" relative="1" as="geometry">
            <mxPoint x="640" y="360" as="sourcePoint" />
            <mxPoint x="690" y="310" as="targetPoint" />
          </mxGeometry>
        </mxCell>
        <mxCell id="id_4tlE-n_HqMQmEI3QP-3" value="" style="endArrow=none;html=1;rounded=0;entryX=0.5;entryY=0.5;entryDx=0;entryDy=0;entryPerimeter=0;exitX=1;exitY=0.5;exitDx=0;exitDy=0;edgeStyle=orthogonalEdgeStyle;" edge="1" parent="1" source="ab9GXCU1WvvpzUMz92Ie-19" target="ab9GXCU1WvvpzUMz92Ie-16">
          <mxGeometry width="50" height="50" relative="1" as="geometry">
            <mxPoint x="530" y="570" as="sourcePoint" />
            <mxPoint x="580" y="520" as="targetPoint" />
          </mxGeometry>
        </mxCell>
        <mxCell id="id_4tlE-n_HqMQmEI3QP-4" value="" style="endArrow=none;html=1;rounded=0;entryX=0.5;entryY=0.5;entryDx=0;entryDy=0;entryPerimeter=0;exitX=1;exitY=0.5;exitDx=0;exitDy=0;edgeStyle=orthogonalEdgeStyle;" edge="1" parent="1" source="ab9GXCU1WvvpzUMz92Ie-17" target="ab9GXCU1WvvpzUMz92Ie-16">
          <mxGeometry width="50" height="50" relative="1" as="geometry">
            <mxPoint x="460" y="490" as="sourcePoint" />
            <mxPoint x="510" y="440" as="targetPoint" />
          </mxGeometry>
        </mxCell>
      </root>
    </mxGraphModel>
  </diagram>
</mxfile>
